<svg xmlns="http://www.w3.org/2000/svg" version="1.1" xmlns:xlink="http://www.w3.org/1999/xlink" xmlns:svgjs="http://svgjs.dev/svgjs" width="1000" height="1000" viewBox="0 0 1000 1000"><rect width="1000" height="1000" fill="#3468be"></rect><g transform="matrix(0.7,0,0,0.7,149.5757575757575,382.57271565029043)"><svg viewBox="0 0 396 133" data-background-color="#3468be" preserveAspectRatio="xMidYMid meet" height="335" width="1000" xmlns="http://www.w3.org/2000/svg" xmlns:xlink="http://www.w3.org/1999/xlink"><g id="tight-bounds" transform="matrix(1,0,0,1,0.24000000000003752,0.10054933267110755)"><svg viewBox="0 0 395.5199999999999 132.79890133465776" height="132.79890133465776" width="395.5199999999999"><g><svg viewBox="0 0 636.5644145328844 213.73142920384987" height="132.79890133465776" width="395.5199999999999"><g transform="matrix(1,0,0,1,241.04441453288442,63.287061076005536)"><svg viewBox="0 0 395.52 87.1573070518388" height="87.1573070518388" width="395.52"><g id="textblocktransform"><svg viewBox="0 0 395.52 87.1573070518388" height="87.1573070518388" width="395.52" id="textblock"><g><svg viewBox="0 0 395.52 57.847865367581925" height="57.847865367581925" width="395.52"><g transform="matrix(1,0,0,1,0,0)"><svg width="395.52" viewBox="0 -33.39 228.29 33.39" height="57.847865367581925" data-palette-color="#f8fafc"><path d="M13.3-24.37L9.38-14.05 20.12-14.05 16.25-24.37Q15.47-26.49 14.71-29.17L14.71-29.17Q14.26-27.1 13.3-24.37L13.3-24.37ZM16.41-33.39L29.47 0 25.48 0 21.33-10.57 8.01-10.57 3.92 0 0 0 13.14-33.39 16.41-33.39ZM34.05-33.27L42.67-33.27Q55.13-33.27 55.13-23.56L55.13-23.56Q55.13-18.53 51.68-15.8 48.23-13.07 41.83-13.07L41.83-13.07 37.91-13.07 37.91 0 34.05 0 34.05-33.27ZM42.24-29.9L37.91-29.9 37.91-16.41 41.4-16.41Q46.51-16.41 48.83-18.05L48.83-18.05Q51.14-19.72 51.14-23.22 51.14-26.72 48.96-28.31 46.79-29.9 42.24-29.9L42.24-29.9ZM68.5-24.37L64.58-14.05 75.32-14.05 71.46-24.37Q70.67-26.49 69.91-29.17L69.91-29.17Q69.46-27.1 68.5-24.37L68.5-24.37ZM71.61-33.39L84.68 0 80.68 0 76.54-10.57 63.22-10.57 59.12 0 55.2 0 68.35-33.39 71.61-33.39ZM98.15-29.88L93.12-29.88 93.12-17.16 98.43-17.16Q102.5-17.16 104.42-18.77 106.34-20.37 106.34-23.66 106.34-26.95 104.39-28.41 102.44-29.88 98.15-29.88L98.15-29.88ZM100.04-13.83L93.12-13.83 93.12 0 89.25 0 89.25-33.27 98.37-33.27Q104.47-33.27 107.4-30.93 110.33-28.59 110.33-23.86L110.33-23.86Q110.33-17.24 103.66-14.94L103.66-14.94 112.68 0 108.11 0 100.04-13.83ZM138.82-29.83L128.28-29.83 128.28 0 124.41 0 124.41-29.83 113.87-29.83 113.87-33.27 138.82-33.27 138.82-29.83ZM166.19-14.18L166.19-33.27 169.81-33.27 169.81 0 165.38 0 147.21-27.91 147.03-27.91Q147.38-22.83 147.38-18.91L147.38-18.91 147.38 0 143.82 0 143.82-33.27 148.19-33.27 166.32-5.46 166.49-5.46Q166.11-12.01 166.19-14.18L166.19-14.18ZM182.82-3.46L197.48-3.46 197.48 0 178.95 0 178.95-33.27 197.48-33.27 197.48-29.83 182.82-29.83 182.82-19.11 196.6-19.11 196.6-15.7 182.82-15.7 182.82-3.46ZM213.76-29.88L208.73-29.88 208.73-17.16 214.04-17.16Q218.11-17.16 220.03-18.77 221.95-20.37 221.95-23.66 221.95-26.95 220-28.41 218.06-29.88 213.76-29.88L213.76-29.88ZM215.65-13.83L208.73-13.83 208.73 0 204.86 0 204.86-33.27 213.99-33.27Q220.08-33.27 223.01-30.93 225.94-28.59 225.94-23.86L225.94-23.86Q225.94-17.24 219.27-14.94L219.27-14.94 228.29 0 223.72 0 215.65-13.83Z" opacity="1" transform="matrix(1,0,0,1,0,0)" fill="#f8fafc" class="undefined-text-0" data-fill-palette-color="primary" id="text-0"></path></svg></g></svg></g><g transform="matrix(1,0,0,1,0,71.50435803209919)"><svg viewBox="0 0 232.209792 15.652949019739607" height="15.652949019739607" width="232.209792"><g transform="matrix(1,0,0,1,0,0)"><svg width="232.209792" viewBox="2.64 -31.61 547.3100000000001 36.9" height="15.652949019739607" data-palette-color="#f8fafc"><path d="M7.13-23.45L7.13-23.45Q7.13-22.24 7.93-21.18 8.74-20.11 10-19.43 11.26-18.74 12.87-18.22 14.48-17.7 16.26-17.13 18.05-16.55 19.77-15.86 21.49-15.17 22.76-14.14L22.76-14.14Q25.52-11.9 25.52-8.05L25.52-8.05Q25.52-6.21 24.66-4.57 23.79-2.93 22.24-1.84L22.24-1.84Q19.08 0.46 13.79 0.46L13.79 0.46Q8.79 0.46 5-2.07L5-2.07Q2.64-3.56 2.64-4.6L2.64-4.6Q2.64-5.52 3.56-6.09L3.56-6.09Q3.79-6.32 4.14-6.32 4.48-6.32 4.89-6.03 5.29-5.75 5.83-5.34 6.38-4.94 7.21-4.45 8.05-3.97 8.97-3.56L8.97-3.56Q11.26-2.64 13.45-2.7 15.63-2.76 16.95-3.05 18.28-3.33 19.31-4.02L19.31-4.02Q21.49-5.52 21.55-7.82L21.55-7.82Q21.55-10.69 18.74-12.24L18.74-12.24Q17.47-12.93 15.89-13.48 14.31-14.02 12.56-14.54 10.8-15.06 9.08-15.8 7.36-16.55 6.03-17.59L6.03-17.59Q3.22-19.83 3.22-23.33L3.22-23.33Q3.22-25.17 4.11-26.78 5-28.39 6.55-29.43L6.55-29.43Q9.54-31.55 14.02-31.61L14.02-31.61Q20.52-31.61 24.48-27.41L24.48-27.41Q24.71-27.07 24.71-26.64 24.71-26.21 24.68-25.92 24.66-25.63 24.37-25.34L24.37-25.34Q23.97-24.83 23.3-24.83 22.64-24.83 21.9-25.69L21.9-25.69Q20-27.07 18.85-27.47L18.85-27.47Q16.55-28.39 14.37-28.39L14.37-28.39Q11.55-28.39 9.54-27.24L9.54-27.24Q7.13-25.86 7.13-23.45ZM51.15 0L34.25 0Q33.56 0 33.1-0.46L33.1-0.46Q32.3-1.15 32.3-1.9L32.3-1.9 32.3-29.43Q32.3-30.52 33.45-31.15L33.45-31.15Q33.79-31.26 34.14-31.38L34.14-31.38 50.51-31.38Q51.38-31.38 51.78-30.86 52.18-30.34 52.18-29.74 52.18-29.14 51.72-28.62 51.26-28.1 50.51-28.1L50.51-28.1 36.09-28.1 36.09-17.7 49.83-17.7Q50.69-17.7 51.09-17.21 51.49-16.72 51.49-16.09L51.49-16.09Q51.49-15.52 51.03-15.06 50.57-14.6 49.83-14.6L49.83-14.6 36.09-14.6 36.09-3.22 51.15-3.22Q51.95-3.22 52.35-2.7 52.76-2.18 52.76-1.55 52.76-0.92 52.33-0.46 51.89 0 51.15 0L51.15 0ZM74.25-27.93L84.82-2.41Q84.88-2.07 84.88-1.72 84.88-1.38 84.71-1.03 84.54-0.69 84.25-0.52L84.25-0.52Q83.67 0 82.98 0L82.98 0Q81.6 0 81.14-1.21L81.14-1.21 78.33-8.16 62.81-8.16 60.05-1.21Q59.65 0 58.44 0 57.24 0 56.6-1.03L56.6-1.03Q56.43-1.38 56.43-1.67 56.43-1.95 56.6-2.41L56.6-2.41 67.01-27.93Q68.16-30.8 69.65-31.21L69.65-31.21Q70.05-31.26 70.68-31.38L70.68-31.38Q71.83-31.38 72.41-30.86L72.41-30.86Q73.33-30.17 74.25-27.93L74.25-27.93ZM70.57-28.1L63.9-11.21 77.29-11.21 70.57-28.1ZM90.28-1.9L90.28-29.43Q90.28-30.57 91.54-31.21L91.54-31.21Q91.89-31.38 92.29-31.38L92.29-31.38 101.66-31.38Q109.25-31.38 111.89-27.36L111.89-27.36Q112.81-25.69 112.81-23.13 112.81-20.57 111.14-18.79 109.48-17.01 106.37-16.38L106.37-16.38 106.37-16.21Q109.36-15.69 110.62-13.97L110.62-13.97Q111.6-12.53 111.86-10.11 112.12-7.7 112.29-6.32L112.29-6.32Q112.46-4.31 112.64-1.9L112.64-1.9Q112.64-0.92 112.03-0.46 111.43 0 110.68 0 109.94 0 109.36-0.43 108.79-0.86 108.67-1.72L108.67-1.72Q108.44-4.37 108.27-6.41 108.1-8.45 107.87-9.86 107.64-11.26 107.23-12.18 106.83-13.1 106.14-13.62L106.14-13.62Q104.99-14.48 101.6-14.6L101.6-14.6 94.19-14.6 94.19-1.9Q94.19-0.52 92.98-0.11L92.98-0.11Q92.64 0 92.09 0 91.54 0 90.91-0.46 90.28-0.92 90.28-1.9L90.28-1.9ZM94.19-17.59L99.94-17.59Q105.39-17.59 107.29-19.31L107.29-19.31Q108.67-20.52 108.79-22.93L108.79-22.93Q108.79-26.32 106.26-27.41L106.26-27.41Q104.88-28.1 103.5-28.19 102.12-28.28 101.31-28.28L101.31-28.28 94.19-28.28 94.19-17.59ZM118.84-15.52L118.84-15.52Q118.84-18.51 119.7-21.55 120.56-24.6 122.35-26.78L122.35-26.78Q126.14-31.61 133.15-31.61L133.15-31.61Q137.17-31.61 140.97-29.83L140.97-29.83Q141.94-29.43 141.94-28.51L141.94-28.51Q141.94-26.78 140.56-26.72L140.56-26.72Q140.28-26.72 140.05-26.78L140.05-26.78Q136.08-28.16 133.75-28.16 131.43-28.16 129.88-27.64 128.32-27.13 127.17-26.21 126.02-25.29 125.22-24.08 124.42-22.87 123.96-21.38L123.96-21.38Q122.98-18.62 122.98-15.52L122.98-15.52Q122.98-10.46 125.22-7.01L125.22-7.01Q127.86-2.93 133.38-2.93L133.38-2.93Q137.17-2.93 140.62-4.94L140.62-4.94Q141.08-5.06 141.51-5.06 141.94-5.06 142.32-4.66 142.69-4.25 142.69-3.62 142.69-2.99 142.23-2.44 141.77-1.9 141-1.47 140.22-1.03 139.27-0.69 138.32-0.34 137.29-0.11L137.29-0.11Q135.1 0.46 133.15 0.46L133.15 0.46Q126.08 0.46 122.35-4.31L122.35-4.31Q118.84-8.62 118.84-15.52ZM171.25-17.93L171.25-29.48Q171.25-30.8 172.57-31.21L172.57-31.21Q172.92-31.26 173.44-31.32 173.95-31.38 174.59-30.92 175.22-30.46 175.22-29.48L175.22-29.48 175.22-1.9Q175.22-1.03 174.7-0.57L174.7-0.57Q174.01 0 173.23 0 172.46 0 171.86-0.46 171.25-0.92 171.25-1.9L171.25-1.9 171.25-14.66 154.76-14.66 154.76-1.9Q154.76-1.03 154.3-0.57L154.3-0.57Q153.61 0 152.8 0 152 0 151.42-0.46 150.85-0.92 150.85-1.9L150.85-1.9 150.85-29.48Q150.85-30.8 152.11-31.21L152.11-31.21Q152.46-31.26 152.98-31.32 153.49-31.38 154.13-30.92 154.76-30.46 154.76-29.48L154.76-29.48 154.76-17.93 171.25-17.93ZM188.15-4.02L184.87 5.29 181.77 5.29 183.84-4.02 188.15-4.02ZM208.03-1.9L208.03-29.43Q208.03-30.57 209.29-31.21L209.29-31.21Q209.64-31.38 210.04-31.38L210.04-31.38 219.41-31.38Q226.99-31.38 229.64-27.36L229.64-27.36Q230.55-25.69 230.55-23.13 230.55-20.57 228.89-18.79 227.22-17.01 224.12-16.38L224.12-16.38 224.12-16.21Q227.11-15.69 228.37-13.97L228.37-13.97Q229.35-12.53 229.61-10.11 229.87-7.7 230.04-6.32L230.04-6.32Q230.21-4.31 230.38-1.9L230.38-1.9Q230.38-0.92 229.78-0.46 229.18 0 228.43 0 227.68 0 227.11-0.43 226.53-0.86 226.42-1.72L226.42-1.72Q226.19-4.37 226.01-6.41 225.84-8.45 225.61-9.86 225.38-11.26 224.98-12.18 224.58-13.1 223.89-13.62L223.89-13.62Q222.74-14.48 219.35-14.6L219.35-14.6 211.93-14.6 211.93-1.9Q211.93-0.52 210.73-0.11L210.73-0.11Q210.38 0 209.84 0 209.29 0 208.66-0.46 208.03-0.92 208.03-1.9L208.03-1.9ZM211.93-17.59L217.68-17.59Q223.14-17.59 225.04-19.31L225.04-19.31Q226.42-20.52 226.53-22.93L226.53-22.93Q226.53-26.32 224-27.41L224-27.41Q222.62-28.1 221.24-28.19 219.87-28.28 219.06-28.28L219.06-28.28 211.93-28.28 211.93-17.59ZM257.22 0L240.32 0Q239.63 0 239.17-0.46L239.17-0.46Q238.37-1.15 238.37-1.9L238.37-1.9 238.37-29.43Q238.37-30.52 239.52-31.15L239.52-31.15Q239.86-31.26 240.21-31.38L240.21-31.38 256.59-31.38Q257.45-31.38 257.85-30.86 258.25-30.34 258.25-29.74 258.25-29.14 257.79-28.62 257.33-28.1 256.59-28.1L256.59-28.1 242.16-28.1 242.16-17.7 255.9-17.7Q256.76-17.7 257.16-17.21 257.56-16.72 257.56-16.09L257.56-16.09Q257.56-15.52 257.1-15.06 256.64-14.6 255.9-14.6L255.9-14.6 242.16-14.6 242.16-3.22 257.22-3.22Q258.02-3.22 258.43-2.7 258.83-2.18 258.83-1.55 258.83-0.92 258.4-0.46 257.97 0 257.22 0L257.22 0ZM265.43-1.72L265.43-28.79Q265.43-29.89 266.18-30.57L266.18-30.57Q266.87-31.26 267.68-31.38L267.68-31.38Q269.29-31.38 270.2-30.11L270.2-30.11 286.87-5 286.87-29.54Q286.87-30.46 287.22-30.8L287.22-30.8Q287.85-31.38 288.45-31.38 289.06-31.38 289.4-31.26 289.75-31.15 289.98-30.92L289.98-30.92Q290.61-30.46 290.55-29.54L290.55-29.54 290.55-2.59Q290.55-0.86 288.88-0.17L288.88-0.17Q288.48 0 287.85 0L287.85 0Q286.47 0 285.43-1.26L285.43-1.26 269.17-26.03 269.17-1.72Q269.17-0.92 268.71-0.57L268.71-0.57Q268.02 0 267.27 0 266.53 0 265.98-0.43 265.43-0.86 265.43-1.72L265.43-1.72ZM305.2-28.1L296.64-28.1Q295.78-28.1 295.37-28.62 294.97-29.14 294.97-29.74 294.97-30.34 295.37-30.86 295.78-31.38 296.64-31.38L296.64-31.38 317.62-31.38Q318.42-31.38 318.82-30.86 319.23-30.34 319.23-29.74 319.23-29.14 318.79-28.62 318.36-28.1 317.62-28.1L317.62-28.1 309.11-28.1 309.11-1.9Q309.11-0.57 307.96-0.11L307.96-0.11Q307.62 0 307.04 0 306.47 0 305.83-0.46 305.2-0.92 305.2-1.9L305.2-1.9 305.2-28.1ZM328.53-4.02L325.26 5.29 322.15 5.29 324.22-4.02 328.53-4.02ZM365.54-5.06L365.6-5.06 376-28.05Q376.92-30 377.38-30.52L377.38-30.52Q378.36-31.38 379.36-31.38 380.37-31.38 380.91-31.15 381.46-30.92 381.86-30.52L381.86-30.52Q382.84-29.54 382.84-27.93L382.84-27.93 382.84-1.72Q382.84-0.86 382.29-0.43 381.75 0 381.06 0 380.37 0 379.85-0.43 379.33-0.86 379.33-1.72L379.33-1.72 379.33-27.47 367.95-2.41Q367.26-0.69 365.54-0.69L365.54-0.69Q364.05-0.69 363.18-2.41L363.18-2.41 351.86-27.36 351.86-1.72Q351.86-0.86 351.32-0.43 350.77 0 350.08 0 349.39 0 348.84-0.43 348.3-0.86 348.3-1.72L348.3-1.72 348.3-27.93Q348.3-30.46 350.14-31.15L350.14-31.15Q350.77-31.26 351.43-31.32 352.09-31.38 352.64-31.21 353.18-31.03 353.59-30.69L353.59-30.69Q354.28-30.11 355.31-28.05L355.31-28.05 365.54-5.06ZM405.82-27.93L416.4-2.41Q416.46-2.07 416.46-1.72 416.46-1.38 416.28-1.03 416.11-0.69 415.82-0.52L415.82-0.52Q415.25 0 414.56 0L414.56 0Q413.18 0 412.72-1.21L412.72-1.21 409.91-8.16 394.39-8.16 391.63-1.21Q391.23 0 390.02 0 388.81 0 388.18-1.03L388.18-1.03Q388.01-1.38 388.01-1.67 388.01-1.95 388.18-2.41L388.18-2.41 398.58-27.93Q399.73-30.8 401.23-31.21L401.23-31.21Q401.63-31.26 402.26-31.38L402.26-31.38Q403.41-31.38 403.99-30.86L403.99-30.86Q404.91-30.17 405.82-27.93L405.82-27.93ZM402.15-28.1L395.48-11.21 408.87-11.21 402.15-28.1ZM421.45-1.72L421.45-28.79Q421.45-29.89 422.2-30.57L422.2-30.57Q422.89-31.26 423.7-31.38L423.7-31.38Q425.3-31.38 426.22-30.11L426.22-30.11 442.89-5 442.89-29.54Q442.89-30.46 443.24-30.8L443.24-30.8Q443.87-31.38 444.47-31.38 445.07-31.38 445.42-31.26 445.76-31.15 445.99-30.92L445.99-30.92Q446.63-30.46 446.57-29.54L446.57-29.54 446.57-2.59Q446.57-0.86 444.9-0.17L444.9-0.17Q444.5 0 443.87 0L443.87 0Q442.49 0 441.45-1.26L441.45-1.26 425.19-26.03 425.19-1.72Q425.19-0.92 424.73-0.57L424.73-0.57Q424.04 0 423.29 0 422.55 0 422-0.43 421.45-0.86 421.45-1.72L421.45-1.72ZM469.27-27.93L479.84-2.41Q479.9-2.07 479.9-1.72 479.9-1.38 479.73-1.03 479.56-0.69 479.27-0.52L479.27-0.52Q478.69 0 478 0L478 0Q476.62 0 476.16-1.21L476.16-1.21 473.35-8.16 457.83-8.16 455.07-1.21Q454.67 0 453.46 0 452.26 0 451.62-1.03L451.62-1.03Q451.45-1.38 451.45-1.67 451.45-1.95 451.62-2.41L451.62-2.41 462.03-27.93Q463.18-30.8 464.67-31.21L464.67-31.21Q465.07-31.26 465.7-31.38L465.7-31.38Q466.85-31.38 467.43-30.86L467.43-30.86Q468.35-30.17 469.27-27.93L469.27-27.93ZM465.59-28.1L458.92-11.21 472.31-11.21 465.59-28.1ZM490.39-6.21Q491.74-4.48 493.92-3.56 496.1-2.64 499.44-2.64 502.77-2.64 506.1-3.68L506.1-3.68 506.1-13.22 499.9-13.22Q499.21-13.22 498.81-13.68 498.4-14.14 498.4-14.66L498.4-14.66Q498.4-15.29 498.75-15.69 499.09-16.09 499.9-16.09L499.9-16.09 508.35-16.09Q510.01-16.09 510.01-14.48L510.01-14.48 510.01-2.99Q510.01-1.38 508.52-1.15L508.52-1.15Q503.23 0.46 499.38 0.46 495.53 0.46 492.66-0.52 489.78-1.49 487.83-3.45L487.83-3.45Q483.58-7.7 483.58-15.63L483.58-15.63Q483.58-22.24 487.48-26.72L487.48-26.72Q491.51-31.55 499.09-31.61L499.09-31.61Q504.04-31.61 507.94-30L507.94-30Q508.75-29.54 508.75-28.82 508.75-28.1 508.37-27.59 508-27.07 507.37-27.07L507.37-27.07 507.14-27.07Q507.02-27.07 506.51-27.21 505.99-27.36 505.01-27.56 504.04-27.76 503-27.93L503-27.93Q500.7-28.28 499.32-28.28L499.32-28.28Q493.46-28.28 490.41-24.37L490.41-24.37Q489.04-22.59 488.43-20.2 487.83-17.82 487.83-15.29 487.83-12.76 488.43-10.34 489.04-7.93 490.39-6.21ZM536.96 0L520.07 0Q519.38 0 518.92-0.46L518.92-0.46Q518.11-1.15 518.11-1.9L518.11-1.9 518.11-29.43Q518.11-30.52 519.26-31.15L519.26-31.15Q519.61-31.26 519.95-31.38L519.95-31.38 536.33-31.38Q537.19-31.38 537.6-30.86 538-30.34 538-29.74 538-29.14 537.54-28.62 537.08-28.1 536.33-28.1L536.33-28.1 521.91-28.1 521.91-17.7 535.64-17.7Q536.5-17.7 536.91-17.21 537.31-16.72 537.31-16.09L537.31-16.09Q537.31-15.52 536.85-15.06 536.39-14.6 535.64-14.6L535.64-14.6 521.91-14.6 521.91-3.22 536.96-3.22Q537.77-3.22 538.17-2.7 538.57-2.18 538.57-1.55 538.57-0.92 538.14-0.46 537.71 0 536.96 0L536.96 0ZM545.38-1.32Q545.24-1.72 545.24-2.13 545.24-2.53 545.38-2.9 545.52-3.28 545.87-3.59 546.21-3.91 546.65-4.08 547.08-4.25 547.65-4.25 548.23-4.25 548.63-4.08 549.03-3.91 549.35-3.59 549.66-3.28 549.81-2.9 549.95-2.53 549.95-2.13 549.95-1.72 549.81-1.32 549.66-0.92 549.35-0.63 549.03-0.34 548.63-0.17 548.23 0 547.65 0 547.08 0 546.65-0.17 546.21-0.34 545.87-0.63 545.52-0.92 545.38-1.32Z" opacity="1" transform="matrix(1,0,0,1,0,0)" fill="#f8fafc" class="undefined-text-1" data-fill-palette-color="secondary" id="text-1"></path></svg></g></svg></g></svg></g></svg></g><g><svg viewBox="0 0 213.73142920384987 213.73142920384987" height="213.73142920384987" width="213.73142920384987"><g><svg></svg></g><g id="icon-0"><svg viewBox="0 0 213.73142920384987 213.73142920384987" height="213.73142920384987" width="213.73142920384987"><g><path d="M0 106.866c0-59.02 47.845-106.866 106.866-106.866 59.02 0 106.866 47.845 106.865 106.866 0 59.02-47.845 106.866-106.865 106.865-59.02 0-106.866-47.845-106.866-106.865zM106.866 208.515c56.139 0 101.649-45.51 101.649-101.649 0-56.139-45.51-101.649-101.649-101.649-56.139 0-101.649 45.51-101.649 101.649 0 56.139 45.51 101.649 101.649 101.649z" data-fill-palette-color="accent" fill="#f7f8f9" stroke="transparent"></path></g><g transform="matrix(1,0,0,1,43.10499142775954,43.6310173939464)"><svg viewBox="0 0 127.52144634833078 126.46939441595707" height="126.46939441595707" width="127.52144634833078"><g><svg xmlns="http://www.w3.org/2000/svg" xmlns:xlink="http://www.w3.org/1999/xlink" version="1.1" x="0" y="0" viewBox="0 0 100 99.17500000000001" enable-background="new 0 0 100 100" xml:space="preserve" height="126.46939441595707" width="127.52144634833078" class="icon-_$-0" data-fill-palette-color="accent" id="_$-0"><g fill="#f7f8f9" data-fill-palette-color="accent"><path d="M31.376 43.864v-3.979l-2.809-2.807 2.723-2.723-2.723-2.723 2.723-2.723-2.723-2.723 2.716-2.714-5.138-5.138-5.23 5.23v20.167c-3.925 1.898-6.629 5.917-6.629 10.567 0 6.48 5.253 11.733 11.732 11.733 6.479 0 11.731-5.253 11.731-11.733C37.75 49.753 35.16 45.812 31.376 43.864zM26.019 62.465c-1.902 0-3.442-1.543-3.442-3.444s1.54-3.442 3.442-3.442c1.9 0 3.443 1.541 3.443 3.442S27.919 62.465 26.019 62.465z" fill="#f7f8f9" data-fill-palette-color="accent"></path><path d="M20.788 68.559v5.011H0v6.791h27.718v-4.012h0.012v-6.946c-0.562 0.063-1.132 0.103-1.711 0.103C24.178 69.505 22.422 69.159 20.788 68.559zM85.567 73.569V6.94c0-3.833-3.106-6.94-6.941-6.94H27.729c-3.834 0-6.941 3.107-6.941 6.94v11.848l2.903-2.904c0.651-0.652 1.534-1.018 2.454-1.018 0.558 0 1.096 0.149 1.584 0.4V6.94h50.82l-28.08 16.36c-1.068 0.621-1.724 1.764-1.724 2.998v69.406c0 1.242 0.664 2.391 1.739 3.01 0.536 0.307 1.135 0.461 1.731 0.461 0.603 0 1.206-0.157 1.746-0.473l27.513-16.03c0.436-0.196 0.845-0.437 1.227-0.714l1.046-0.61c0.43-0.249 0.769-0.599 1.049-0.988H100v-6.791H85.567zM60.28 67.753c-2.237 0-4.049-1.813-4.049-4.049s1.812-4.049 4.049-4.049c2.234 0 4.049 1.813 4.049 4.049S62.515 67.753 60.28 67.753z" fill="#f7f8f9" data-fill-palette-color="accent"></path></g></svg></g></svg></g></svg></g></svg></g></svg></g><defs></defs></svg><rect width="395.5199999999999" height="132.79890133465776" fill="none" stroke="none" visibility="hidden"></rect></g></svg></g></svg>